<svg width="22" height="22" viewBox="0 0 22 22" fill="none" xmlns="http://www.w3.org/2000/svg">
<path fill-rule="evenodd" clip-rule="evenodd" d="M20.3653 0H1.61944C0.733333 0 0 0.702778 0 1.58889V20.4111C0 21.2819 0.733333 22 1.61944 22H20.3653C21.2667 22 22 21.2819 22 20.4111V1.58889C22 0.702778 21.2667 0 20.3653 0ZM6.52361 18.7458H3.25417V8.25H6.52361V18.7458ZM4.88889 6.81389C3.85 6.81389 2.99444 5.97361 2.99444 4.91944C2.99444 3.88056 3.83472 3.025 4.88889 3.025C5.92778 3.025 6.78333 3.86528 6.78333 4.91944C6.78333 5.95833 5.94306 6.81389 4.88889 6.81389ZM18.7458 18.7458H15.4917V13.6431C15.4917 12.4208 15.4764 10.8625 13.7958 10.8625C12.1 10.8625 11.8403 12.1917 11.8403 13.5514V18.7458H8.57083V8.25H11.7028V9.68611H11.7486C12.1917 8.86111 13.2458 7.99028 14.8347 7.99028C18.1347 7.99028 18.7458 10.1597 18.7458 12.9861V18.7458Z" fill="#222222"/>
</svg>
